<?xml version="1.0" encoding="UTF-8"?>
<svg width="256" height="256" viewBox="0 0 256 256" fill="none" xmlns="http://www.w3.org/2000/svg" role="img" aria-label="Pest Control icon">
  <defs>
    <linearGradient id="g" x1="0" y1="0" x2="256" y2="256" gradientUnits="userSpaceOnUse">
      <stop offset="0" stop-color="#0EA5E9"/>
      <stop offset="1" stop-color="#7C3AED"/>
    </linearGradient>
  </defs>
  <!-- Shield background -->
  <path d="M128 16c36 20 64 16 96 24v76c0 62-45 108-96 124-51-16-96-62-96-124V40c32-8 60-4 96-24z" fill="url(#g)"/>
  <!-- Skull simplified -->
  <g fill="#FFFFFF" opacity="0.95">
    <path d="M128 70c-30 0-54 21-54 48 0 17 10 32 26 40v14a8 8 0 0 0 8 8h8v6a6 6 0 0 0 12 0v-6h8v6a6 6 0 0 0 12 0v-6h8a8 8 0 0 0 8-8v-14c16-8 26-23 26-40 0-27-24-48-54-48z"/>
    <circle cx="104" cy="118" r="12" fill="#0F172A"/>
    <circle cx="152" cy="118" r="12" fill="#0F172A"/>
    <rect x="118" y="134" width="20" height="10" rx="5" fill="#0F172A"/>
  </g>
  <!-- Crosshair lines to suggest targeting pests -->
  <g stroke="#FFFFFF" stroke-opacity="0.9" stroke-width="6" stroke-linecap="round">
    <path d="M128 36v24"/>
    <path d="M128 196v24"/>
    <path d="M44 120h24"/>
    <path d="M188 120h24"/>
  </g>
</svg>
